<svg version="1.1" id="Layer_1" xmlns="http://www.w3.org/2000/svg" xmlns:xlink="http://www.w3.org/1999/xlink" x="0px" y="0px"
	 width="100%" viewBox="0 0 225 225" enable-background="new 0 0 225 225" xml:space="preserve">
<path fill="#000000" opacity="1.000000" stroke="none" 
	d="
M145.000000,226.000000 
	C96.666672,226.000000 48.833340,226.000000 1.000006,226.000000 
	C1.000004,151.000000 1.000004,76.000015 1.000002,1.000016 
	C75.999992,1.000011 150.999985,1.000011 225.999969,1.000005 
	C225.999985,75.999985 225.999985,150.999969 226.000000,225.999969 
	C199.166672,226.000000 172.333328,226.000000 145.000000,226.000000 
M121.019287,184.796051 
	C121.620079,184.519028 122.198524,184.072281 122.824936,183.989807 
	C138.003815,181.991470 150.650314,175.267120 161.226181,164.190979 
	C176.393341,148.306396 182.507339,129.566650 179.861649,107.869453 
	C179.495102,104.863335 178.059845,104.164635 175.553879,106.119095 
	C172.598373,108.424171 169.406479,110.467506 166.688553,113.019905 
	C165.124252,114.488937 163.336243,116.715935 163.286942,118.643639 
	C162.910126,133.379349 156.857819,145.511337 146.081070,155.015564 
	C134.274506,165.428024 120.398659,169.926254 104.433388,167.225739 
	C88.078972,164.459427 75.773697,155.477997 68.234451,141.385162 
	C58.036476,122.322495 59.659138,103.618866 73.120773,85.916603 
	C86.434540,68.408783 111.138786,61.547390 131.106476,70.603683 
	C138.841370,74.111824 144.987396,76.199821 151.670319,68.918724 
	C155.588501,64.649811 155.961807,65.385582 151.356491,61.839027 
	C130.577744,45.837273 96.021576,45.643509 73.641380,62.095406 
	C51.606377,78.293549 39.602924,106.434624 47.594154,134.825317 
	C53.499962,155.807068 66.493645,170.684448 86.348396,179.563293 
	C97.101387,184.371902 108.500580,185.304779 121.019287,184.796051 
M111.243584,113.201706 
	C103.124649,108.339104 95.005722,103.476501 86.185501,98.193878 
	C86.185501,105.164856 86.000275,110.978386 86.318436,116.764244 
	C86.395958,118.174042 87.842644,119.925072 89.144951,120.781197 
	C95.935272,125.245140 102.877899,129.477783 109.777000,133.775681 
	C112.115524,135.232513 113.951012,135.104004 116.342911,133.139053 
	C123.148376,127.548286 130.242554,122.296295 137.370102,117.113136 
	C148.810959,108.793350 160.416000,100.698601 171.809036,92.314941 
	C172.971954,91.459190 174.138458,88.780647 173.636856,87.802887 
	C171.308105,83.263596 168.391907,79.025681 165.721451,74.736832 
	C150.140808,86.540962 135.372360,97.821083 120.475571,108.929054 
	C117.885193,110.860596 114.752869,112.065346 111.243584,113.201706 
z"/>
<path fill="#F0FBF6" opacity="1.000000" stroke="none" 
	d="
M120.559212,184.814484 
	C108.500580,185.304779 97.101387,184.371902 86.348396,179.563293 
	C66.493645,170.684448 53.499962,155.807068 47.594154,134.825317 
	C39.602924,106.434624 51.606377,78.293549 73.641380,62.095406 
	C96.021576,45.643509 130.577744,45.837273 151.356491,61.839027 
	C155.961807,65.385582 155.588501,64.649811 151.670319,68.918724 
	C144.987396,76.199821 138.841370,74.111824 131.106476,70.603683 
	C111.138786,61.547390 86.434540,68.408783 73.120773,85.916603 
	C59.659138,103.618866 58.036476,122.322495 68.234451,141.385162 
	C75.773697,155.477997 88.078972,164.459427 104.433388,167.225739 
	C120.398659,169.926254 134.274506,165.428024 146.081070,155.015564 
	C156.857819,145.511337 162.910126,133.379349 163.286942,118.643639 
	C163.336243,116.715935 165.124252,114.488937 166.688553,113.019905 
	C169.406479,110.467506 172.598373,108.424171 175.553879,106.119095 
	C178.059845,104.164635 179.495102,104.863335 179.861649,107.869453 
	C182.507339,129.566650 176.393341,148.306396 161.226181,164.190979 
	C150.650314,175.267120 138.003815,181.991470 122.824936,183.989807 
	C122.198524,184.072281 121.620079,184.519028 120.559212,184.814484 
z"/>
<path fill="#EEFBF3" opacity="1.000000" stroke="none" 
	d="
M111.557220,113.403748 
	C114.752869,112.065346 117.885193,110.860596 120.475571,108.929054 
	C135.372360,97.821083 150.140808,86.540962 165.721451,74.736832 
	C168.391907,79.025681 171.308105,83.263596 173.636856,87.802887 
	C174.138458,88.780647 172.971954,91.459190 171.809036,92.314941 
	C160.416000,100.698601 148.810959,108.793350 137.370102,117.113136 
	C130.242554,122.296295 123.148376,127.548286 116.342911,133.139053 
	C113.951012,135.104004 112.115524,135.232513 109.777000,133.775681 
	C102.877899,129.477783 95.935272,125.245140 89.144951,120.781197 
	C87.842644,119.925072 86.395958,118.174042 86.318436,116.764244 
	C86.000275,110.978386 86.185501,105.164856 86.185501,98.193878 
	C95.005722,103.476501 103.124649,108.339104 111.557220,113.403748 
z"/>
</svg>